<svg xmlns:dc="http://purl.org/dc/elements/1.1/" xmlns:cc="http://creativecommons.org/ns#" xmlns:rdf="http://www.w3.org/1999/02/22-rdf-syntax-ns#" xmlns:svg="http://www.w3.org/2000/svg" xmlns="http://www.w3.org/2000/svg" xmlns:sodipodi="http://sodipodi.sourceforge.net/DTD/sodipodi-0.dtd" xmlns:inkscape="http://www.inkscape.org/namespaces/inkscape" viewBox="0 0 100 125" version="1.1" style="" x="0px" y="0px" fill="none"><path clip-rule="evenodd" d="M 49.99995,9.0012 C 27.38005,9.0012 9.00125,27.38 9.00125,50 c 0,22.62 18.3788,40.9988 40.9987,40.9988 22.62,0 40.9988,-18.3788 40.9988,-40.9988 0,-22.62 -18.3788,-40.9988 -40.9988,-40.9988 z m 0,3.9975 c 20.4583,0 37.0013,16.5431 37.0013,37.0013 0,20.4582 -16.543,37.0012 -37.0013,37.0012 -20.4582,0 -37.0012,-16.543 -37.0012,-37.0012 0,-20.4582 16.543,-37.0013 37.0012,-37.0013 z m 0,21.0696 c -6.9224,0 -12.575,5.6604 -12.575,12.5923 0,6.9319 5.6526,12.5921 12.575,12.5921 6.9225,0 12.5751,-5.6602 12.5751,-12.5921 0,-6.9319 -5.6526,-12.5923 -12.5751,-12.5923 z m 0,3.9988 c 4.7622,0 8.5818,3.8248 8.5818,8.5935 0,4.7686 -3.8196,8.5933 -8.5818,8.5933 -4.7621,0 -8.5817,-3.8247 -8.5817,-8.5933 0,-4.7687 3.8196,-8.5935 8.5817,-8.5935 z m 0,21.8649 c -10.7547,0 -19.4129,8.6741 -19.4129,19.4369 0,1.1045 0.8954,2 2,2 1.1045,0 2,-0.8955 2,-2 0,-8.5588 6.8725,-15.4369 15.4129,-15.4369 8.5405,0 15.413,6.8781 15.413,15.4369 0,1.1045 0.8955,2 2,2 1.1046,0 2,-0.8955 2,-2 0,-10.7628 -8.6582,-19.4369 -19.413,-19.4369 z" style="" fill="#ffffff" fill-rule="evenodd"/></svg>